# xmcd CD database file
#
# Track frame offsets:
#	150
#	25913
#	44753
#	58873
#	65573
#	108173
#	133842
#	151077
#	174272
#	190587
#	219566
#	247888
#	259988
#
# Disc length: 3735 seconds
#
# Revision: 0
# Processed by: cddbd v1.5.2PL0 Copyright (c) Steve Scherf et al.
# Submitted via: CDex 1.51
#
DISCID=b60e950d
DTITLE=Christoph Merki - Twenty Thousand Leagues Under The Sea
DYEAR=2004
DGENRE=Jazz
TTITLE0=Twenty Thousand Leagues Under The Sea part 2
TTITLE1=Sea-Spider
TTITLE2=Poulps
TTITLE3=First Walk Under The Sea
TTITLE4=Ambient Or A Submarine Forest
TTITLE5=Nautilus
TTITLE6=The Coral Cemetery
TTITLE7=Albatross
TTITLE8=Second Walk Under The Sea
TTITLE9=Seven Solar Colours
TTITLE10=Twenty Thousand Leagues Under The Sea part 1
TTITLE11=Echo
TTITLE12=Seven Solar Colours (Remix)
EXTD=YEAR: 2004
EXTT0=
EXTT1=
EXTT2=
EXTT3=
EXTT4=
EXTT5=
EXTT6=
EXTT7=
EXTT8=
EXTT9=
EXTT10=
EXTT11=
EXTT12=
PLAYORDER=
